<?xml version="1.0" encoding="UTF-8" standalone="no"?>
<!DOCTYPE svg PUBLIC "-//W3C//DTD SVG 1.1//EN" "http://www.w3.org/Graphics/SVG/1.1/DTD/svg11.dtd">
<svg width="100%" height="100%" viewBox="0 0 3378 896" version="1.1" xmlns="http://www.w3.org/2000/svg" xmlns:xlink="http://www.w3.org/1999/xlink" xml:space="preserve" xmlns:serif="http://www.serif.com/" style="fill-rule:evenodd;clip-rule:evenodd;stroke-linejoin:round;stroke-miterlimit:2;">
    <g transform="matrix(1,0,0,1,-771.859962,-1233.775691)">
        <g id="Milkysoft_logo_full" transform="matrix(1,0,0,1,61.285815,110.539774)">
            <g id="Milkysoft_text" transform="matrix(0.542672,0,0,0.542672,599.866595,583.992594)">
                <path d="M2073.427,1581.748L2334.059,1894.62L2594.691,1581.748L2731.536,1581.748L2731.536,2375L2578.224,2375L2578.224,1817.963L2573.681,1817.963L2344.279,2097.333L2322.702,2097.333L2093.301,1817.963L2088.758,1817.963L2088.758,2375L1935.445,2375L1935.445,1581.748L2073.427,1581.748Z" style="fill:rgb(37,35,35);fill-rule:nonzero;stroke:rgb(37,35,35);stroke-width:1.84px;"/>
                <path d="M2963.209,1599.35C2984.787,1599.35 3003.336,1607.111 3018.856,1622.631C3034.377,1638.152 3042.137,1656.701 3042.137,1678.278C3042.137,1699.098 3034.471,1717.553 3019.14,1733.641C3003.809,1749.729 2985.165,1757.774 2963.209,1757.774C2942.01,1757.774 2923.556,1749.729 2907.846,1733.641C2892.136,1717.553 2884.282,1699.098 2884.282,1678.278C2884.282,1656.322 2892.231,1637.679 2908.13,1622.347C2924.029,1607.016 2942.389,1599.35 2963.209,1599.35ZM3033.052,1844.651L3033.052,2375L2893.367,2375L2893.367,1844.651L3033.052,1844.651Z" style="fill:rgb(37,35,35);fill-rule:nonzero;stroke:rgb(37,35,35);stroke-width:1.84px;"/>
                <rect x="3181.822" y="1581.748" width="139.685" height="793.252" style="fill:rgb(37,35,35);fill-rule:nonzero;stroke:rgb(37,35,35);stroke-width:1.84px;"/>
                <path d="M3605.42,1581.748L3605.42,2375L3465.735,2375L3465.735,1581.748L3605.42,1581.748ZM3990.406,1844.651L3775.2,2106.419L4017.093,2375L3839.932,2375L3607.691,2106.419L3826.304,1844.651L3990.406,1844.651Z" style="fill:rgb(37,35,35);fill-rule:nonzero;stroke:rgb(37,35,35);stroke-width:1.84px;"/>
                <path d="M4150.532,1844.651L4276.022,2129.699L4403.215,1844.651L4553.121,1844.651L4186.873,2642.446L4036.967,2642.446L4205.611,2277.334L3999.491,1844.651L4150.532,1844.651Z" style="fill:rgb(37,35,35);fill-rule:nonzero;stroke:rgb(37,35,35);stroke-width:1.84px;"/>
                <path d="M4796.15,1834.43C4825.298,1834.43 4852.743,1837.742 4878.485,1844.367C4904.226,1850.992 4931.482,1861.496 4960.252,1875.881L4960.252,1987.743C4933.753,1970.708 4905.362,1956.986 4875.078,1946.576C4844.794,1936.166 4817.727,1930.96 4793.879,1930.96C4773.815,1930.96 4758.106,1934.746 4746.749,1942.317C4735.393,1949.888 4729.714,1960.677 4729.714,1974.683C4729.714,1982.633 4734.446,1990.582 4743.91,1998.532C4753.374,2006.481 4779.304,2021.055 4821.702,2042.254C4882.27,2072.917 4924.762,2101.213 4949.179,2127.144C4973.595,2153.075 4985.804,2184.211 4985.804,2220.551C4985.804,2271.656 4968.012,2311.877 4932.428,2341.214C4896.844,2370.552 4848.768,2385.221 4788.2,2385.221C4750.345,2385.221 4715.046,2381.057 4682.301,2372.729C4649.556,2364.401 4622.395,2354.369 4600.818,2342.634L4600.818,2226.23C4668.957,2264.085 4726.307,2283.012 4772.869,2283.012C4796.718,2283.012 4816.024,2278.754 4830.787,2270.236C4845.551,2261.719 4852.933,2250.457 4852.933,2236.451C4852.933,2228.122 4850.283,2220.551 4844.983,2213.738C4839.683,2206.924 4831.734,2199.92 4821.134,2192.728C4810.535,2185.536 4777.412,2168.312 4721.765,2141.056C4678.989,2120.614 4647.38,2098.374 4626.938,2074.336C4606.496,2050.298 4596.275,2021.813 4596.275,1988.879C4596.275,1941.938 4614.635,1904.462 4651.354,1876.449C4688.074,1848.436 4736.339,1834.43 4796.15,1834.43Z" style="fill:rgb(37,35,35);fill-rule:nonzero;stroke:rgb(37,35,35);stroke-width:1.84px;"/>
                <path d="M5356.594,1834.43C5411.862,1834.43 5462.02,1845.976 5507.067,1869.067C5552.115,1892.159 5586.942,1924.525 5611.547,1966.166C5636.153,2007.806 5648.456,2054.936 5648.456,2107.554C5648.456,2162.444 5636.626,2210.52 5612.967,2251.782C5589.308,2293.044 5554.481,2325.599 5508.487,2349.448C5462.493,2373.297 5411.862,2385.221 5356.594,2385.221C5300.947,2385.221 5250.41,2373.297 5204.984,2349.448C5159.558,2325.599 5125.016,2293.044 5101.356,2251.782C5077.697,2210.52 5065.867,2162.444 5065.867,2107.554C5065.867,2054.179 5078.359,2006.765 5103.344,1965.314C5128.328,1923.863 5163.155,1891.686 5207.823,1868.784C5252.492,1845.881 5302.082,1834.43 5356.594,1834.43ZM5212.366,2107.554C5212.366,2160.551 5225.331,2202.854 5251.262,2234.463C5277.193,2266.072 5311.925,2281.877 5355.458,2281.877C5400.884,2281.877 5436.657,2266.735 5462.777,2236.451C5488.897,2206.167 5501.957,2162.823 5501.957,2106.419C5501.957,2052.664 5488.802,2011.118 5462.493,1981.781C5436.184,1952.443 5400.506,1937.774 5355.458,1937.774C5313.06,1937.774 5278.612,1953.295 5252.114,1984.336C5225.615,2015.377 5212.366,2056.45 5212.366,2107.554Z" style="fill:rgb(37,35,35);fill-rule:nonzero;stroke:rgb(37,35,35);stroke-width:1.84px;"/>
                <path d="M5983.473,1571.527C5999.751,1571.527 6016.502,1573.041 6033.726,1576.07C6050.95,1579.098 6064.861,1583.073 6075.461,1587.994L6075.461,1701.559C6056.155,1696.259 6035.145,1693.609 6012.432,1693.609C5978.741,1693.609 5953.662,1702.316 5937.195,1719.729C5920.728,1737.143 5912.495,1766.102 5912.495,1806.607L5912.495,1844.651L6003.347,1844.651L6003.347,1950.267L5912.495,1950.267L5912.495,2375L5772.81,2375L5772.81,1950.267L5697.289,1950.267L5697.289,1844.651L5772.81,1844.651L5772.81,1804.903C5772.81,1733.357 5792.021,1676.575 5830.444,1634.556C5868.867,1592.536 5919.877,1571.527 5983.473,1571.527Z" style="fill:rgb(37,35,35);fill-rule:nonzero;stroke:rgb(37,35,35);stroke-width:1.84px;"/>
                <path d="M6223.095,1703.83L6234.452,1703.83L6234.452,1844.651L6416.156,1844.651L6416.156,1950.267L6234.452,1950.267L6234.452,2194.999C6234.452,2218.848 6241.644,2238.154 6256.029,2252.918C6270.414,2267.681 6290.099,2275.063 6315.083,2275.063C6347.638,2275.063 6385.115,2263.328 6427.513,2239.858L6427.513,2351.719C6377.165,2374.054 6329.847,2385.221 6285.556,2385.221C6225.745,2385.221 6179.089,2368.943 6145.587,2336.388C6112.086,2303.833 6095.335,2259.731 6095.335,2204.085L6095.335,1950.267L6012.432,1950.267L6012.432,1927.554L6223.095,1703.83Z" style="fill:rgb(37,35,35);fill-rule:nonzero;stroke:rgb(37,35,35);stroke-width:1.84px;"/>
            </g>
            <g id="Milkysoft_logo">
                <path d="M750.157,1870L1420.832,1870.007L1420.832,1433.549L1254.34,1262.131L1255.404,1162.819L867.278,1162.819L866.215,1262.131L750.157,1404.83L750.157,1870Z" style="fill:none;stroke:rgb(34,34,34);stroke-width:79.17px;stroke-linecap:round;stroke-miterlimit:1.5;"/>
                <path d="M866.215,1262.131L1255.34,1262.131" style="fill:none;stroke:rgb(34,34,34);stroke-width:79.17px;stroke-miterlimit:1.5;"/>
                <path d="M866.215,1262.131L1190,1574.066L1419.829,1433.549" style="fill:none;stroke:rgb(34,34,34);stroke-width:79.17px;stroke-miterlimit:1.5;"/>
                <path d="M1054.3,1870.007L1054.3,1439.549" style="fill:none;stroke:rgb(34,34,34);stroke-width:79.17px;stroke-miterlimit:1.5;"/>
            </g>
        </g>
    </g>
</svg>
