<?xml version="1.0" encoding="UTF-8" standalone="no"?>
<!DOCTYPE svg PUBLIC "-//W3C//DTD SVG 1.1//EN" "http://www.w3.org/Graphics/SVG/1.1/DTD/svg11.dtd">
<svg width="100%" height="100%" viewBox="0 0 308 325" version="1.1" xmlns="http://www.w3.org/2000/svg" xmlns:xlink="http://www.w3.org/1999/xlink" xml:space="preserve" xmlns:serif="http://www.serif.com/" style="fill-rule:evenodd;clip-rule:evenodd;stroke-linejoin:round;stroke-miterlimit:2;">
    <g transform="matrix(1,0,0,1,-1600.393701,-1779.0067)">
        <g id="logo_icon" transform="matrix(1,0,0,1.5,1139.76378,-16.26889)">
            <path d="M460.63,1279.969C460.63,1275.792 463.119,1271.786 467.549,1268.833C478.913,1261.257 501.402,1246.264 512.766,1238.688C517.196,1235.735 519.685,1231.729 519.685,1227.552C519.685,1222.344 519.685,1214.91 519.685,1208.661C519.685,1205.529 521.552,1202.525 524.874,1200.31C528.197,1198.095 532.703,1196.85 537.402,1196.85C573.438,1196.85 654.908,1196.85 690.945,1196.85C695.644,1196.85 700.15,1198.095 703.472,1200.31C706.795,1202.525 708.661,1205.529 708.661,1208.661L708.661,1229.697C708.661,1233.874 711.15,1237.88 715.58,1240.833C726.944,1248.409 749.433,1263.402 760.798,1270.978C765.228,1273.931 767.717,1277.937 767.717,1282.114L767.717,1401.575C767.717,1408.098 759.785,1413.386 750,1413.386C695.79,1413.386 532.557,1413.386 478.346,1413.386C468.562,1413.386 460.63,1408.098 460.63,1401.575C460.63,1373.196 460.63,1301.901 460.63,1279.969ZM535.482,1263.891C533.206,1262.608 529.852,1262.657 527.662,1264.006C520.836,1268.209 506.658,1276.94 499.86,1281.126C497.439,1282.617 496.063,1284.714 496.063,1286.91C496.063,1302.8 496.063,1368.943 496.063,1385.827C496.063,1386.871 496.685,1387.872 497.793,1388.611C498.9,1389.349 500.402,1389.764 501.969,1389.764L564.561,1389.764C566.129,1389.764 567.633,1389.348 568.741,1388.608C569.849,1387.869 570.47,1386.865 570.467,1385.82C570.424,1368.995 570.257,1303.344 570.215,1287.11C570.209,1284.798 568.679,1282.604 566.03,1281.111C558.524,1276.88 542.848,1268.043 535.482,1263.891ZM726.378,1389.764C729.639,1389.764 732.283,1388.001 732.283,1385.827C732.283,1372.492 732.283,1328.86 732.283,1310.839C732.283,1309.346 731.017,1307.982 729.013,1307.315C727.009,1306.649 724.612,1306.796 722.824,1307.695C711.296,1313.486 691.868,1323.245 679.825,1329.295C673.517,1332.463 664.826,1332.466 658.514,1329.301C646.421,1323.237 626.883,1313.44 615.31,1307.637C613.521,1306.74 611.125,1306.595 609.122,1307.262C607.119,1307.929 605.854,1309.293 605.855,1310.786C605.867,1328.814 605.898,1372.489 605.907,1385.829C605.909,1388.002 608.552,1389.764 611.813,1389.764L726.378,1389.764ZM663.752,1302.155C666.899,1303.834 671.349,1303.886 674.581,1302.28C683.977,1297.613 703.196,1288.065 714.227,1282.584C716.299,1281.555 717.594,1279.974 717.772,1278.255C717.949,1276.537 716.993,1274.852 715.152,1273.643C706.394,1267.889 692.131,1258.518 685.611,1254.234C683.401,1252.782 680.423,1251.969 677.321,1251.969L586.542,1251.969C584.034,1251.969 581.8,1253.024 580.97,1254.602C580.139,1256.179 580.894,1257.934 582.851,1258.979C604.938,1270.766 648.586,1294.061 663.752,1302.155ZM673.228,1224.409C673.228,1223.365 672.606,1222.364 671.499,1221.626C670.391,1220.887 668.889,1220.472 667.323,1220.472C647.161,1220.472 581.185,1220.472 561.024,1220.472C559.457,1220.472 557.955,1220.887 556.848,1221.626C555.74,1222.364 555.118,1223.365 555.118,1224.409C555.118,1224.409 555.118,1224.409 555.118,1224.409C555.118,1225.454 555.74,1226.455 556.848,1227.193C557.955,1227.932 559.457,1228.346 561.024,1228.346C581.185,1228.346 647.161,1228.346 667.323,1228.346C668.889,1228.346 670.391,1227.932 671.499,1227.193C672.606,1226.455 673.228,1225.454 673.228,1224.409C673.228,1224.409 673.228,1224.409 673.228,1224.409Z" style="fill:rgb(226,114,91);"/>
        </g>
    </g>
</svg>
