<?xml version="1.0" encoding="UTF-8" standalone="no"?>
<!DOCTYPE svg PUBLIC "-//W3C//DTD SVG 1.1//EN" "http://www.w3.org/Graphics/SVG/1.1/DTD/svg11.dtd">
<svg width="100%" height="100%" viewBox="0 0 2815 631" version="1.1" xmlns="http://www.w3.org/2000/svg" xmlns:xlink="http://www.w3.org/1999/xlink" xml:space="preserve" xmlns:serif="http://www.serif.com/" style="fill-rule:evenodd;clip-rule:evenodd;stroke-linecap:round;stroke-linejoin:round;stroke-miterlimit:1.5;">
    <g transform="matrix(1,0,0,1,-256.761,-3605.02)">
        <g id="logo_v2" transform="matrix(0.610054,0,0,0.610054,-567.215,3146.1)">
            <path d="M2088.09,1657.29C1862.2,1753.45 1564.99,1637.73 1527.26,1443.51C1508.67,1347.86 1572.96,1317.06 1612.5,1366.67C1858.83,1675.74 2150.06,1567.44 2215.5,1380.05C2238.82,1313.27 2188.83,1277.54 2136.54,1332.03C2019.37,1454.13 1896.46,1423.62 1766.98,1266C1593.02,1054.24 1383.66,1184.68 1359.18,1350.32C1345.62,1442.03 1360.84,1488.52 1384.28,1543.84C1502.39,1822.59 1848.55,1851.9 2088.09,1657.29Z" style="fill:rgb(37,36,34);stroke:rgb(37,36,34);stroke-width:6.83px;"/>
            <g transform="matrix(1,0,0,1,35.0391,-39.7071)">
                <path d="M2098.03,1257.26C2054.82,1404.86 1894.78,1417.14 1831.26,1306.28C1788.13,1231.01 1884.16,1174.92 1917.92,1240.16C1937.66,1278.31 1986.55,1278.31 2015.23,1240.16C2040.34,1257.4 2068.42,1260.89 2098.03,1257.26Z" style="fill:rgb(37,36,34);stroke:rgb(37,36,34);stroke-width:6.83px;"/>
            </g>
            <g transform="matrix(1,0,0,1,26.6791,-36.9694)">
                <circle cx="2091.13" cy="1117.23" r="100.133" style="fill:rgb(37,36,34);stroke:rgb(37,36,34);stroke-width:6.83px;"/>
            </g>
            <g transform="matrix(1.27826,0,0,1.27826,-316.953,-281.398)">
                <circle cx="1606.12" cy="959.141" r="147.819" style="fill:rgb(37,36,34);stroke:rgb(37,36,34);stroke-width:5.34px;"/>
            </g>
        </g>
        <g transform="matrix(1.04648,0,0,1.07906,11.2741,1396.34)">
            <g transform="matrix(1,0,0,1,-100.833,11.1275)">
                <path d="M1005.59,2597.77C1009.27,2597.77 1026.59,2595.67 1030.27,2594.62C1032.89,2594.09 1035.52,2590.94 1035.52,2587.79C1035.52,2583.59 1034.99,2578.87 1034.99,2574.14C1033.94,2558.92 1034.99,2469.67 1034.99,2454.45C1057.04,2456.55 1080.14,2456.55 1102.19,2450.77C1117.41,2446.57 1132.64,2439.75 1144.71,2429.77C1162.04,2415.07 1173.06,2396.17 1177.26,2374.12C1183.04,2342.63 1183.62,2308.87 1173.64,2278.42C1167.87,2260.04 1159.72,2247.99 1145.55,2235.39C1135.05,2225.41 1113.36,2214.88 1101.11,2211.2C1085.34,2206.47 1065.21,2201.77 1019.04,2201.77C968.862,2201.78 907.637,2215.67 874.151,2265.61C840.71,2315.48 869.515,2353.39 915.186,2315.88C930.799,2303.06 944.577,2297.82 950.877,2297.82C952.452,2354.51 949.42,2400.9 947.32,2457.6C945.745,2499.6 947.32,2542.12 946.27,2584.12C945.745,2589.89 947.845,2595.67 953.095,2596.19C960.445,2596.19 998.769,2598.29 1005.59,2597.77ZM1031.84,2371.5C1032.37,2360.47 1032.12,2300.08 1032.12,2289.05C1047.92,2285.21 1083.73,2288.29 1093.26,2295.84C1105.86,2305.81 1106.39,2334.75 1102.72,2349.98C1101.14,2357.33 1094.84,2363.62 1088.02,2366.78C1070.69,2373.6 1050.74,2373.6 1031.84,2371.5Z" style="fill:rgb(37,36,34);fill-rule:nonzero;stroke:rgb(37,36,34);stroke-width:0.94px;stroke-linecap:butt;stroke-miterlimit:2;"/>
            </g>
            <g transform="matrix(1,0,0,1,-100.833,11.1275)">
                <path d="M1411.93,2597.85C1417.79,2597.3 1435.73,2595.63 1435.74,2586.1C1435.75,2583.47 1434.51,2569.94 1434.51,2567.32C1428.2,2497.5 1430.31,2427.15 1428.2,2357.33C1428.2,2352.6 1427.48,2344.06 1427.15,2339.48C1426.7,2333.19 1423.48,2326.88 1417.71,2323.73C1403.53,2316.9 1352.61,2314.8 1336.86,2316.38C1311.13,2319 1283.84,2324.78 1262.84,2339.48C1242.36,2353.65 1227.14,2376.22 1217.69,2399.32C1205.61,2430.3 1203.51,2464.95 1206.14,2498.02C1208.24,2520.07 1213.49,2543.17 1225.56,2561.54C1234.49,2574.67 1248.14,2585.69 1262.84,2589.89C1275.43,2593.57 1290.13,2591.47 1302.21,2587.27C1320.58,2580.44 1337.38,2567.84 1350.51,2554.19C1351.03,2558.92 1352.08,2583.07 1353.13,2587.27C1354.18,2593.04 1358.91,2598.82 1364.68,2598.82C1380.43,2598.82 1396.03,2599.35 1411.93,2597.85ZM1305.36,2501.17C1299.58,2499.07 1294.86,2493.82 1292.76,2488.05C1280.16,2459.7 1286.46,2411.4 1311.13,2391.97C1317.96,2386.2 1326.88,2383.05 1335.81,2383.58C1337.91,2384.1 1343.68,2384.62 1345.26,2386.2C1348.93,2390.4 1348.41,2406.15 1348.41,2411.4C1348.93,2427.67 1349.46,2443.95 1349.98,2460.22C1349.98,2462.32 1346.31,2468.62 1345.26,2470.72C1337.91,2487 1322.16,2506.95 1305.36,2501.17Z" style="fill:rgb(37,36,34);fill-rule:nonzero;stroke:rgb(37,36,34);stroke-width:0.94px;stroke-linecap:butt;stroke-miterlimit:2;"/>
            </g>
            <g transform="matrix(1,0,0,1,-100.833,11.1275)">
                <path d="M1497.5,2601.44C1505.38,2601.44 1548.43,2601.44 1556.3,2600.92C1562.16,2600.53 1568.85,2597.85 1568.38,2590.42C1566.28,2557.34 1567.85,2524.27 1571.53,2491.72C1573.1,2480.7 1574.68,2469.15 1578.88,2459.17C1581.5,2452.35 1585.17,2445.52 1590.42,2440.27C1603.03,2429.25 1620.35,2424 1636.62,2422.42C1640.3,2421.9 1643.34,2421.43 1647.12,2420.85C1654.96,2419.64 1656.55,2414.78 1656.57,2404.05C1656.59,2396.17 1656.05,2349.45 1656.05,2341.05C1656.05,2337.06 1654.52,2331.1 1650.56,2329.16C1645.29,2326.58 1639.25,2326.88 1633.47,2327.4C1614.57,2330.03 1595.67,2336.85 1579.4,2347.35C1567.85,2354.7 1559.45,2366.25 1552.1,2377.8C1552.63,2370.45 1552.63,2363.1 1553.15,2355.22C1554.2,2345.25 1558.4,2327.93 1548.95,2324.78C1544.75,2323.2 1527.95,2324.78 1523.23,2325.3C1517.98,2325.3 1487.46,2326.44 1482.28,2327.4C1472.62,2329.19 1472.83,2338.16 1472.83,2353.12C1472.83,2398.8 1472.83,2445 1473.88,2491.2C1473.88,2491.72 1474.4,2493.82 1474.4,2493.82C1474.4,2494.35 1473.88,2496.45 1473.88,2496.97C1474.4,2527.95 1475.98,2558.92 1473.88,2589.89C1473.88,2593.57 1477.55,2598.82 1481.23,2600.39C1483.85,2601.44 1494.88,2601.44 1497.5,2601.44Z" style="fill:rgb(37,36,34);fill-rule:nonzero;stroke:rgb(37,36,34);stroke-width:0.94px;stroke-linecap:butt;stroke-miterlimit:2;"/>
            </g>
            <g transform="matrix(1,0,0,1,-100.833,11.1275)">
                <path d="M1793.59,2597.24C1818.79,2596.19 1843.99,2585.69 1863.42,2569.42C1868.14,2565.22 1872.87,2561.02 1876.02,2555.77C1879.69,2551.04 1880.74,2541.6 1877.07,2536.87C1874.44,2533.2 1859.22,2511.14 1856.59,2507.47C1855.54,2505.9 1854.49,2505.37 1852.92,2504.85C1844.52,2501.7 1827.72,2514.3 1820.37,2519.55C1796.22,2535.3 1760.52,2531.62 1756.85,2502.75C1756.32,2496.45 1757.37,2489.62 1758.94,2483.32C1780.99,2483.85 1803.57,2487 1825.09,2481.22C1831.92,2479.65 1839.27,2476.5 1844.52,2471.77C1855.54,2462.85 1864.47,2449.72 1868.67,2436.07C1881.27,2396.7 1867.09,2347.88 1828.24,2333.18C1805.67,2324.78 1779.94,2324.25 1756.85,2331.6C1741.62,2336.85 1726.92,2346.3 1715.9,2357.85C1702.25,2372.55 1693.32,2391.97 1687.55,2410.87C1679.67,2437.65 1676.52,2466 1679.15,2493.82C1680.72,2514.3 1685.97,2534.77 1697,2552.09C1708.55,2569.94 1726.92,2584.64 1746.87,2590.94C1762.1,2595.67 1777.84,2597.77 1793.59,2597.24ZM1764.19,2429.25C1762.1,2428.72 1760.52,2424.52 1760.52,2421.9C1758.42,2400.37 1782.57,2388.82 1803.57,2394.07C1816.69,2397.22 1821.42,2415.6 1810.92,2425.05C1801.99,2432.92 1775.74,2432.4 1764.19,2429.25Z" style="fill:rgb(37,36,34);fill-rule:nonzero;stroke:rgb(37,36,34);stroke-width:0.94px;stroke-linecap:butt;stroke-miterlimit:2;"/>
            </g>
            <g transform="matrix(1,0,0,1,-100.833,11.1275)">
                <path d="M2003.59,2593.57C2010.41,2591.93 2014.98,2589.76 2015.66,2580.44C2015.78,2578.87 2014.61,2568.89 2014.61,2567.32C2014.09,2533.2 2014.09,2499.07 2017.76,2465.47C2019.34,2451.82 2023.54,2437.65 2031.94,2427.67C2036.66,2421.9 2045.4,2415.65 2052.23,2418.28C2058,2420.9 2061.86,2432.4 2062.91,2439.22C2067.11,2460.22 2066.59,2481.75 2066.06,2503.27C2065.53,2529.52 2064.49,2555.24 2062.91,2581.49C2062.91,2584.64 2063.43,2588.32 2065.53,2590.42C2067.64,2592.52 2074.99,2594.09 2078.14,2594.09C2086.01,2594.09 2124.33,2594.62 2132.21,2593.04C2139.69,2591.55 2146.91,2588.37 2147.43,2579.39C2149.53,2543.69 2151.11,2508.52 2151.63,2472.3C2152.16,2451.82 2151.11,2430.3 2147.43,2409.82C2144.28,2391.97 2136.93,2374.12 2126.43,2359.43C2119.61,2349.98 2111.21,2341.58 2101.23,2336.85C2092.31,2332.65 2082.34,2331.08 2072.89,2332.13C2049.26,2334.75 2025.11,2345.25 2008.84,2363.1C2003.06,2368.88 1998.86,2376.22 1995.19,2383.05C1995.19,2377.8 1995.83,2344.68 1995.71,2339.48C1995.55,2332.09 1990.24,2327.96 1985.74,2326.35C1978.39,2323.73 1944.79,2323.2 1936.91,2323.73C1929.56,2323.73 1924.07,2323.83 1917.25,2326.46C1909.9,2329.28 1911.19,2348.4 1911.19,2352.6C1911.72,2380.43 1914.87,2550.52 1914.87,2578.34C1915.39,2586.22 1914.87,2597.24 1922.74,2597.24C1934.29,2597.77 1945.84,2598.29 1957.39,2597.77C1964.21,2597.77 1997.38,2595.05 2003.59,2593.57Z" style="fill:rgb(37,36,34);fill-rule:nonzero;stroke:rgb(37,36,34);stroke-width:0.94px;stroke-linecap:butt;stroke-miterlimit:2;"/>
            </g>
            <g transform="matrix(1,0,0,1,-100.833,11.1275)">
                <path d="M2334.85,2597.24C2340.63,2596.72 2346.4,2594.09 2346.4,2588.32C2342.73,2519.55 2342.2,2450.25 2344.83,2380.95L2344.83,2372.03C2344.83,2371.5 2345.88,2366.25 2345.88,2365.2C2347.45,2344.2 2349.55,2323.73 2350.6,2302.73C2357.95,2302.2 2403.1,2302.2 2410.45,2301.68C2412.55,2301.15 2414.12,2300.1 2415.7,2299.05C2424.62,2298 2423.57,2284.35 2424.1,2275.43C2424.1,2267.55 2425.67,2227.13 2424.62,2219.26C2424.1,2215.58 2419.37,2211.91 2416.22,2210.86C2413.6,2210.33 2402.05,2209.8 2399.95,2209.8C2367.4,2208.76 2334.33,2211.91 2301.78,2212.43C2274.48,2212.95 2246.65,2211.38 2218.83,2211.38C2213.58,2211.38 2191.53,2212.95 2186.28,2211.38C2181.56,2209.8 2176.83,2214.01 2175.26,2219.26C2174.73,2221.36 2174.73,2232.9 2174.73,2235C2174.73,2242.35 2173.16,2284.35 2172.63,2291.7C2172.11,2296.95 2178.93,2302.2 2184.71,2301.15C2195.21,2298.53 2241.93,2301.68 2252.43,2302.2C2249.8,2378.85 2246.13,2455.5 2244.55,2532.14C2244.55,2550.52 2244.55,2568.89 2244.03,2587.79C2243.51,2593.04 2246.13,2596.72 2250.85,2598.29C2253.48,2598.82 2256.1,2597.77 2258.73,2598.29C2269.75,2598.82 2324.35,2598.82 2334.85,2597.24Z" style="fill:rgb(37,36,34);fill-rule:nonzero;stroke:rgb(37,36,34);stroke-width:0.94px;stroke-linecap:butt;stroke-miterlimit:2;"/>
            </g>
            <g transform="matrix(1,0,0,1,-100.833,11.1275)">
                <path d="M2617.29,2597.24C2628.62,2595.99 2627.77,2596.11 2632.33,2595.29C2637.97,2594.27 2642.49,2593.04 2642.49,2588.32C2642.49,2585.69 2639.87,2569.94 2639.87,2567.32C2633.57,2497.5 2635.67,2427.15 2633.57,2357.33C2633.57,2352.6 2632.59,2340 2632.52,2339.48C2631.55,2332.86 2628.84,2326.88 2623.07,2323.73C2608.89,2316.9 2557.97,2314.8 2542.22,2316.38C2516.5,2319 2489.2,2324.78 2468.2,2339.48C2447.72,2353.65 2432.5,2376.22 2423.05,2399.32C2410.97,2430.3 2408.87,2464.95 2411.5,2498.02C2413.6,2520.07 2418.85,2543.17 2430.92,2561.54C2439.85,2574.67 2453.5,2585.69 2468.2,2589.89C2480.8,2593.57 2495.5,2591.47 2507.57,2587.27C2525.95,2580.44 2542.74,2567.84 2555.87,2554.19C2556.39,2558.92 2557.45,2583.07 2558.49,2587.27C2559.55,2593.04 2564.27,2598.82 2570.04,2598.82C2585.79,2598.82 2601.41,2598.99 2617.29,2597.24ZM2510.72,2501.17C2504.95,2499.07 2500.22,2493.82 2498.12,2488.05C2485.52,2459.7 2491.82,2411.4 2516.5,2391.97C2523.32,2386.2 2532.25,2383.05 2541.17,2383.58C2543.27,2384.1 2549.05,2384.62 2550.62,2386.2C2554.3,2390.4 2553.77,2406.15 2553.77,2411.4C2554.3,2427.67 2554.82,2443.95 2555.35,2460.22C2555.35,2462.32 2551.67,2468.62 2550.62,2470.72C2543.27,2487 2527.52,2506.95 2510.72,2501.17Z" style="fill:rgb(37,36,34);fill-rule:nonzero;stroke:rgb(37,36,34);stroke-width:0.94px;stroke-linecap:butt;stroke-miterlimit:2;"/>
            </g>
            <g transform="matrix(1,0,0,1,-100.833,11.1275)">
                <path d="M2765.34,2596.72C2771.25,2596.39 2777.1,2591.78 2777.41,2586.74C2777.94,2578.34 2776.36,2532.14 2776.36,2523.74C2775.31,2472.3 2773.74,2420.85 2774.26,2369.4C2774.26,2349.98 2775.84,2240.78 2774.79,2221.36C2774.62,2218.21 2773.02,2215.94 2770.59,2214.01C2765.09,2209.62 2753.32,2208.4 2745.91,2208.76C2734.89,2209.28 2723.86,2210.33 2712.32,2211.91C2708.12,2212.43 2693.94,2212.43 2690.27,2215.05C2687.12,2217.68 2687.12,2227.13 2687.12,2231.33C2687.64,2259.68 2688.17,2430.3 2688.17,2458.65C2687.64,2501.17 2686.07,2543.69 2685.54,2586.22C2685.54,2593.04 2690.8,2594.45 2697.09,2595.14C2706.54,2596.19 2755.89,2597.24 2765.34,2596.72Z" style="fill:rgb(37,36,34);fill-rule:nonzero;stroke:rgb(37,36,34);stroke-width:0.94px;stroke-linecap:butt;stroke-miterlimit:2;"/>
            </g>
            <g transform="matrix(1,0,0,1,-100.833,11.1275)">
                <path d="M2932.28,2597.24C2957.48,2596.19 2982.68,2585.69 3002.11,2569.42C3006.83,2565.22 3013.43,2556.91 3016.58,2551.66C3033.69,2523.14 3022.97,2497.07 2992.89,2504.03C2983.45,2506.21 2969.23,2515.49 2960.07,2520.8C2935.1,2535.28 2899.21,2531.62 2895.53,2502.75C2895.01,2496.45 2896.06,2489.62 2897.63,2483.32C2919.68,2483.85 2942.26,2487 2963.78,2481.22C2970.61,2479.65 2977.96,2476.5 2983.21,2471.77C2994.23,2462.85 3003.16,2449.72 3007.36,2436.07C3019.95,2396.7 3005.78,2347.88 2966.93,2333.18C2944.36,2324.78 2918.63,2324.25 2895.53,2331.6C2880.31,2336.85 2865.61,2346.3 2854.59,2357.85C2840.94,2372.55 2832.01,2391.97 2826.24,2410.87C2818.36,2437.65 2815.21,2466 2817.84,2493.82C2819.41,2514.3 2824.66,2534.77 2835.69,2552.09C2847.24,2569.94 2865.61,2584.64 2885.56,2590.94C2900.78,2595.67 2916.53,2597.77 2932.28,2597.24ZM2902.88,2429.25C2900.78,2428.72 2899.21,2424.52 2899.21,2421.9C2897.11,2400.37 2921.26,2388.82 2942.26,2394.07C2955.38,2397.22 2960.11,2415.6 2949.61,2425.05C2940.68,2432.92 2914.43,2432.4 2902.88,2429.25Z" style="fill:rgb(37,36,34);fill-rule:nonzero;stroke:rgb(37,36,34);stroke-width:0.94px;stroke-linecap:butt;stroke-miterlimit:2;"/>
            </g>
        </g>
    </g>
</svg>
