<?xml version="1.0" encoding="UTF-8" standalone="no"?>
<!DOCTYPE svg PUBLIC "-//W3C//DTD SVG 1.1//EN" "http://www.w3.org/Graphics/SVG/1.1/DTD/svg11.dtd">
<svg width="100%" height="100%" viewBox="0 0 354 613" version="1.1" xmlns="http://www.w3.org/2000/svg" xmlns:xlink="http://www.w3.org/1999/xlink" xml:space="preserve" xmlns:serif="http://www.serif.com/" style="fill-rule:evenodd;clip-rule:evenodd;stroke-linecap:round;stroke-linejoin:round;stroke-miterlimit:10;">
    <g transform="matrix(1,0,0,1,1,1)">
        <g id="MilkySoft_logo-copy" transform="matrix(1,0,0,1,-360.862,-503.602)">
            <path d="M678.594,867.215L680.48,923.706" style="fill:none;fill-rule:nonzero;stroke:rgb(45,45,45);stroke-width:7px;"/>
            <path d="M665.42,869.477L691.767,864.952" style="fill:none;fill-rule:nonzero;stroke:rgb(45,45,45);stroke-width:7px;"/>
            <path d="M634.345,900.069L647.22,897.99" style="fill:none;fill-rule:nonzero;stroke:rgb(45,45,45);stroke-width:7px;"/>
            <path d="M632.649,875.579L656.345,871.277" style="fill:none;fill-rule:nonzero;stroke:rgb(45,45,45);stroke-width:7px;"/>
            <path d="M636.042,935.378L632.649,875.579" style="fill:none;fill-rule:nonzero;stroke:rgb(45,45,45);stroke-width:7px;"/>
            <path d="M515.063,881.636L505.298,905.805" style="fill:none;fill-rule:nonzero;stroke:rgb(45,45,45);stroke-width:7px;"/>
            <path d="M473.743,894.717L488.553,932.31" style="fill:none;fill-rule:nonzero;stroke:rgb(45,45,45);stroke-width:7px;"/>
            <path d="M467.254,923.706L467.711,860.971" style="fill:none;fill-rule:nonzero;stroke:rgb(45,45,45);stroke-width:7px;"/>
            <path d="M484.711,869.477L467.711,907.007" style="fill:none;fill-rule:nonzero;stroke:rgb(45,45,45);stroke-width:7px;"/>
            <path d="M441.304,910.779L456.699,918.193" style="fill:none;fill-rule:nonzero;stroke:rgb(45,45,45);stroke-width:7px;"/>
            <path d="M442.255,849.726L441.304,910.779" style="fill:none;fill-rule:nonzero;stroke:rgb(45,45,45);stroke-width:7px;"/>
            <path d="M430.297,907.007L430.458,844.15" style="fill:none;fill-rule:nonzero;stroke:rgb(45,45,45);stroke-width:7px;"/>
            <path d="M404.802,863.106L418.518,836.347" style="fill:none;fill-rule:nonzero;stroke:rgb(45,45,45);stroke-width:7px;"/>
            <path d="M393.957,825.194L404.802,863.106" style="fill:none;fill-rule:nonzero;stroke:rgb(45,45,45);stroke-width:7px;"/>
            <path d="M527.474,651.796L516.606,617.534" style="fill:none;fill-rule:nonzero;stroke:rgb(45,45,45);stroke-width:7px;"/>
            <path d="M631.456,568.407L636.042,623.892" style="fill:none;fill-rule:nonzero;stroke:rgb(45,45,45);stroke-width:7px;"/>
            <path d="M480.848,506.102L631.456,568.407" style="fill:none;fill-rule:nonzero;stroke:rgb(45,45,45);stroke-width:7px;"/>
            <path d="M484.711,556.129L480.848,506.102" style="fill:none;fill-rule:nonzero;stroke:rgb(45,45,45);stroke-width:7px;"/>
            <path d="M484.711,556.129L636.042,623.892" style="fill:none;fill-rule:nonzero;stroke:rgb(45,45,45);stroke-width:7px;"/>
            <path d="M363.362,665.18L484.711,556.129" style="fill:none;fill-rule:nonzero;stroke:rgb(45,45,45);stroke-width:7px;"/>
            <path d="M706.886,739.968L600.628,671.423" style="fill:none;fill-rule:nonzero;stroke:rgb(45,45,45);stroke-width:7px;"/>
            <path d="M636.042,623.892L706.886,739.968" style="fill:none;fill-rule:nonzero;stroke:rgb(45,45,45);stroke-width:7px;"/>
            <path d="M533.251,752.824L636.042,623.892" style="fill:none;fill-rule:nonzero;stroke:rgb(45,45,45);stroke-width:7px;"/>
            <path d="M539.857,978.421L708.254,940.953" style="fill:none;fill-rule:nonzero;stroke:rgb(45,45,45);stroke-width:7px;"/>
            <path d="M535.72,863.106L706.886,834.165" style="fill:none;fill-rule:nonzero;stroke:rgb(45,45,45);stroke-width:7px;"/>
            <path d="M375.368,903.485L538.03,978.421" style="fill:none;fill-rule:nonzero;stroke:rgb(45,45,45);stroke-width:7px;"/>
            <path d="M369.425,787.283L535.72,863.106" style="fill:none;fill-rule:nonzero;stroke:rgb(45,45,45);stroke-width:7px;"/>
            <path d="M706.886,739.968L709.622,1065.25" style="fill:none;fill-rule:nonzero;stroke:rgb(45,45,45);stroke-width:7px;"/>
            <path d="M533.251,752.824L706.886,739.968" style="fill:none;fill-rule:nonzero;stroke:rgb(45,45,45);stroke-width:7px;"/>
            <path d="M542.809,1111.8L709.622,1065.25" style="fill:none;fill-rule:nonzero;stroke:rgb(45,45,45);stroke-width:7px;"/>
            <path d="M380.939,1018.7L542.809,1111.8" style="fill:none;fill-rule:nonzero;stroke:rgb(45,45,45);stroke-width:7px;"/>
            <path d="M363.362,665.18L380.939,1018.7" style="fill:none;fill-rule:nonzero;stroke:rgb(45,45,45);stroke-width:7px;"/>
            <path d="M363.362,665.18L533.251,752.824" style="fill:none;fill-rule:nonzero;stroke:rgb(45,45,45);stroke-width:7px;"/>
            <path d="M533.251,752.824L542.809,1111.8" style="fill:none;fill-rule:nonzero;stroke:rgb(45,45,45);stroke-width:7px;"/>
            <path d="M457.008,637.083C454.652,630.394 466.014,620.297 482.385,614.532C498.756,608.767 513.937,609.517 516.293,616.207C518.648,622.897 507.287,632.993 490.916,638.758C474.545,644.523 459.364,643.773 457.008,637.083Z" style="fill:white;fill-opacity:0;fill-rule:nonzero;stroke:rgb(45,45,45);stroke-width:7px;stroke-linecap:butt;"/>
            <path d="M467.901,666.855L456.699,636.737" style="fill:none;fill-rule:nonzero;stroke:rgb(45,45,45);stroke-width:7px;"/>
            <path d="M395.486,892.339L393.121,825.194" style="fill:none;fill-rule:nonzero;stroke:rgb(45,45,45);stroke-width:7px;"/>
            <path d="M418.518,902.608L418.518,836.347" style="fill:none;fill-rule:nonzero;stroke:rgb(45,45,45);stroke-width:7px;"/>
            <path d="M506.28,940.953L505.298,903.485" style="fill:none;fill-rule:nonzero;stroke:rgb(45,45,45);stroke-width:7px;"/>
            <path d="M496.645,874.372L505.298,905.805" style="fill:none;fill-rule:nonzero;stroke:rgb(45,45,45);stroke-width:7px;"/>
            <path d="M467.915,666.78C467.748,666.822 469.099,667.208 469.333,667.317C470.339,667.784 471.459,667.785 472.52,668.019C475.678,668.717 478.991,668.716 482.212,668.85C492.631,669.284 506.967,666.847 515.843,661.141C519.647,658.696 523.208,656.403 526.396,653.215C526.469,653.142 527.664,651.895 527.447,651.796" style="fill:none;fill-rule:nonzero;stroke:rgb(45,45,45);stroke-width:7px;"/>
            <path d="M560.292,938.627C560.873,944.447 569.241,951.205 575.09,948.503C581.605,945.495 585.756,937.147 585.758,930.141C585.76,922.482 583.254,914.547 575.435,912.095C572.664,911.226 568.491,912.822 566.188,910.936C561.395,907.013 562.264,900.564 562.88,895.138C563.379,890.742 566.786,885.551 571.426,884.737C573.637,884.349 574.809,884.754 576.518,886.067C577.213,886.601 578.905,888.634 578.275,888.024" style="fill:none;fill-rule:nonzero;stroke:rgb(45,45,45);stroke-width:7px;"/>
            <path d="M608.689,941.606C601.606,941.973 595.136,928.219 594.238,910.886C593.34,893.553 598.353,879.204 605.436,878.837C612.519,878.47 618.989,892.224 619.887,909.557C620.785,926.89 615.772,941.239 608.689,941.606Z" style="fill:white;fill-opacity:0;fill-rule:nonzero;stroke:rgb(45,45,45);stroke-width:7px;stroke-linecap:butt;"/>
        </g>
    </g>
</svg>
