<?xml version="1.0" encoding="UTF-8" standalone="no"?>
<!DOCTYPE svg PUBLIC "-//W3C//DTD SVG 1.1//EN" "http://www.w3.org/Graphics/SVG/1.1/DTD/svg11.dtd">
<svg width="100%" height="100%" viewBox="0 0 855 222" version="1.1" xmlns="http://www.w3.org/2000/svg" xmlns:xlink="http://www.w3.org/1999/xlink" xml:space="preserve" xmlns:serif="http://www.serif.com/" style="fill-rule:evenodd;clip-rule:evenodd;stroke-linejoin:round;stroke-miterlimit:2;">
    <g transform="matrix(1,0,0,1,-2262.703872,-2994.221458)">
        <g id="logo_vertical" transform="matrix(0.648446,0,0,0.648446,1570.241002,2782.043808)">
            <g transform="matrix(1,0,0,1.5,607.250835,-1468.06609)">
                <path d="M460.63,1279.969C460.63,1275.792 463.119,1271.786 467.549,1268.833C478.913,1261.257 501.402,1246.264 512.766,1238.688C517.196,1235.735 519.685,1231.729 519.685,1227.552C519.685,1222.344 519.685,1214.91 519.685,1208.661C519.685,1205.529 521.552,1202.525 524.874,1200.31C528.197,1198.095 532.703,1196.85 537.402,1196.85C573.438,1196.85 654.908,1196.85 690.945,1196.85C695.644,1196.85 700.15,1198.095 703.472,1200.31C706.795,1202.525 708.661,1205.529 708.661,1208.661L708.661,1229.697C708.661,1233.874 711.15,1237.88 715.58,1240.833C726.944,1248.409 749.433,1263.402 760.798,1270.978C765.228,1273.931 767.717,1277.937 767.717,1282.114L767.717,1401.575C767.717,1408.098 759.785,1413.386 750,1413.386C695.79,1413.386 532.557,1413.386 478.346,1413.386C468.562,1413.386 460.63,1408.098 460.63,1401.575C460.63,1373.196 460.63,1301.901 460.63,1279.969ZM535.482,1263.891C533.206,1262.608 529.852,1262.657 527.662,1264.006C520.836,1268.209 506.658,1276.94 499.86,1281.126C497.439,1282.617 496.063,1284.714 496.063,1286.91C496.063,1302.8 496.063,1368.943 496.063,1385.827C496.063,1386.871 496.685,1387.872 497.793,1388.611C498.9,1389.349 500.402,1389.764 501.969,1389.764L564.561,1389.764C566.129,1389.764 567.633,1389.348 568.741,1388.608C569.849,1387.869 570.47,1386.865 570.467,1385.82C570.424,1368.995 570.257,1303.344 570.215,1287.11C570.209,1284.798 568.679,1282.604 566.03,1281.111C558.524,1276.88 542.848,1268.043 535.482,1263.891ZM726.378,1389.764C729.639,1389.764 732.283,1388.001 732.283,1385.827C732.283,1372.492 732.283,1328.86 732.283,1310.839C732.283,1309.346 731.017,1307.982 729.013,1307.315C727.009,1306.649 724.612,1306.796 722.824,1307.695C711.296,1313.486 691.868,1323.245 679.825,1329.295C673.517,1332.463 664.826,1332.466 658.514,1329.301C646.421,1323.237 626.883,1313.44 615.31,1307.637C613.521,1306.74 611.125,1306.595 609.122,1307.262C607.119,1307.929 605.854,1309.293 605.855,1310.786C605.867,1328.814 605.898,1372.489 605.907,1385.829C605.909,1388.002 608.552,1389.764 611.813,1389.764L726.378,1389.764ZM663.752,1302.155C666.899,1303.834 671.349,1303.886 674.581,1302.28C683.977,1297.613 703.196,1288.065 714.227,1282.584C716.299,1281.555 717.594,1279.974 717.772,1278.255C717.949,1276.537 716.993,1274.852 715.152,1273.643C706.394,1267.889 692.131,1258.518 685.611,1254.234C683.401,1252.782 680.423,1251.969 677.321,1251.969L586.542,1251.969C584.034,1251.969 581.8,1253.024 580.97,1254.602C580.139,1256.179 580.894,1257.934 582.851,1258.979C604.938,1270.766 648.586,1294.061 663.752,1302.155ZM673.228,1224.409C673.228,1223.365 672.606,1222.364 671.499,1221.626C670.391,1220.887 668.889,1220.472 667.323,1220.472C647.161,1220.472 581.185,1220.472 561.024,1220.472C559.457,1220.472 557.955,1220.887 556.848,1221.626C555.74,1222.364 555.118,1223.365 555.118,1224.409C555.118,1224.409 555.118,1224.409 555.118,1224.409C555.118,1225.454 555.74,1226.455 556.848,1227.193C557.955,1227.932 559.457,1228.346 561.024,1228.346C581.185,1228.346 647.161,1228.346 667.323,1228.346C668.889,1228.346 670.391,1227.932 671.499,1227.193C672.606,1226.455 673.228,1225.454 673.228,1224.409C673.228,1224.409 673.228,1224.409 673.228,1224.409Z" style="fill:rgb(37,36,34);"/>
            </g>
            <g transform="matrix(0.921844,0,0,0.921844,322.952532,-609.732894)">
                <g transform="matrix(1,0,0,1,12.838216,-0)">
                    <path d="M1291.291,1294.565C1293.582,1294.565 1295.698,1293.342 1296.842,1291.357C1302.184,1282.086 1317.815,1254.957 1326.492,1239.897C1327.216,1238.641 1328.694,1238.027 1330.095,1238.402C1331.496,1238.777 1332.471,1240.046 1332.471,1241.496C1332.471,1263.613 1332.471,1310.158 1332.471,1327.177C1332.471,1330.715 1335.339,1333.583 1338.877,1333.583C1344.891,1333.583 1353.841,1333.583 1359.857,1333.583C1361.558,1333.583 1363.188,1332.907 1364.389,1331.705C1365.591,1330.502 1366.265,1328.871 1366.264,1327.171C1366.24,1301.245 1366.154,1204.327 1366.131,1178.422C1366.127,1174.887 1363.26,1172.022 1359.724,1172.022C1351.863,1172.022 1338.788,1172.022 1332.413,1172.022C1330.112,1172.022 1327.987,1173.257 1326.847,1175.257C1319.819,1187.592 1294.674,1231.724 1286.236,1246.533C1285.667,1247.533 1284.604,1248.151 1283.453,1248.151C1282.302,1248.151 1281.24,1247.533 1280.67,1246.533C1272.233,1231.724 1247.087,1187.592 1240.059,1175.257C1238.92,1173.257 1236.795,1172.022 1234.493,1172.022C1228.151,1172.022 1215.183,1172.022 1207.368,1172.022C1203.836,1172.022 1200.97,1174.88 1200.961,1178.412C1200.895,1204.297 1200.648,1301.215 1200.582,1327.16C1200.578,1328.862 1201.251,1330.496 1202.453,1331.701C1203.655,1332.906 1205.287,1333.583 1206.989,1333.583C1213.022,1333.583 1222.001,1333.583 1228.03,1333.583C1229.729,1333.583 1231.358,1332.908 1232.56,1331.707C1233.761,1330.505 1234.436,1328.876 1234.436,1327.177C1234.436,1310.16 1234.436,1263.623 1234.436,1241.511C1234.436,1240.061 1235.41,1238.791 1236.811,1238.417C1238.212,1238.042 1239.69,1238.655 1240.414,1239.912C1249.091,1254.967 1264.722,1282.088 1270.065,1291.358C1271.208,1293.342 1273.325,1294.565 1275.615,1294.565L1291.291,1294.565Z" style="fill:rgb(37,36,34);"/>
                </g>
                <path d="M1434.915,1333.583C1438.453,1333.583 1441.321,1330.715 1441.321,1327.177C1441.321,1306.577 1441.321,1242.187 1441.321,1221.588C1441.321,1218.05 1438.453,1215.182 1434.915,1215.182C1428.756,1215.182 1419.498,1215.182 1413.338,1215.182C1409.8,1215.182 1406.932,1218.05 1406.932,1221.588C1406.932,1242.187 1406.932,1306.577 1406.932,1327.177C1406.932,1330.715 1409.8,1333.583 1413.338,1333.583C1419.498,1333.583 1428.756,1333.583 1434.915,1333.583ZM1402.778,1183.793C1402.778,1195.102 1411.779,1202.949 1424.473,1202.949C1436.705,1202.949 1446.399,1195.102 1446.399,1183.793C1446.399,1172.022 1436.705,1164.175 1424.473,1164.175C1411.779,1164.175 1402.778,1172.022 1402.778,1183.793Z" style="fill:rgb(37,36,34);"/>
                <path d="M1499.77,1333.583C1503.308,1333.583 1506.177,1330.715 1506.177,1327.177C1506.177,1300.659 1506.177,1199.637 1506.177,1173.12C1506.177,1169.582 1503.308,1166.714 1499.77,1166.714C1493.611,1166.714 1484.353,1166.714 1478.193,1166.714C1474.655,1166.714 1471.787,1169.582 1471.787,1173.12C1471.787,1199.637 1471.787,1300.659 1471.787,1327.177C1471.787,1330.715 1474.655,1333.583 1478.193,1333.583C1484.353,1333.583 1493.611,1333.583 1499.77,1333.583Z" style="fill:rgb(37,36,34);"/>
                <path d="M1576.115,1255.4C1575.292,1256.51 1573.85,1256.967 1572.538,1256.534C1571.226,1256.1 1570.339,1254.874 1570.339,1253.492C1570.339,1233.812 1570.339,1189.648 1570.339,1173.12C1570.339,1169.582 1567.471,1166.714 1563.933,1166.714L1542.356,1166.714C1538.818,1166.714 1535.95,1169.582 1535.95,1173.12C1535.95,1199.637 1535.95,1300.659 1535.95,1327.177C1535.95,1330.715 1538.818,1333.583 1542.356,1333.583C1548.516,1333.583 1557.774,1333.583 1563.933,1333.583C1567.471,1333.583 1570.339,1330.715 1570.339,1327.177L1570.339,1291.044C1570.339,1289.613 1571.288,1288.356 1572.664,1287.963C1574.04,1287.571 1575.51,1288.139 1576.264,1289.355C1583.305,1300.703 1594.112,1318.119 1594.112,1318.119C1603.575,1331.967 1615.576,1336.122 1629.194,1336.122C1637.135,1336.122 1646.271,1334.585 1655.574,1328.133C1658.246,1326.291 1659.11,1322.739 1657.583,1319.876C1655.463,1315.848 1652.385,1310.076 1650.131,1305.85C1648.619,1303.016 1645.241,1301.74 1642.232,1302.866C1639.137,1304.019 1636.144,1304.502 1634.502,1304.502C1627.809,1304.502 1623.654,1301.963 1618.346,1293.885C1618.346,1293.885 1609.484,1279.733 1605.178,1272.855C1603.791,1270.64 1603.888,1267.805 1605.425,1265.69C1611.261,1257.656 1625.804,1237.639 1634.729,1225.353C1636.145,1223.404 1636.348,1220.826 1635.254,1218.68C1634.16,1216.533 1631.955,1215.182 1629.546,1215.182L1609.166,1215.182C1607.137,1215.182 1605.229,1216.143 1604.02,1217.772C1598.816,1224.789 1584.289,1244.378 1576.115,1255.4Z" style="fill:rgb(37,36,34);"/>
                <path d="M1727.348,1275.309C1726.847,1276.498 1725.681,1277.271 1724.39,1277.269C1723.1,1277.266 1721.937,1276.49 1721.44,1275.299C1715.573,1261.237 1702.587,1230.114 1698.001,1219.121C1697.005,1216.736 1694.673,1215.182 1692.088,1215.182C1686.205,1215.182 1675.43,1215.182 1667.48,1215.182C1665.308,1215.182 1663.283,1216.283 1662.102,1218.107C1660.922,1219.931 1660.746,1222.23 1661.636,1224.212C1671.467,1246.11 1696.33,1301.492 1703.996,1318.567C1705.453,1321.814 1705.495,1325.521 1704.11,1328.8C1699.517,1339.674 1688.77,1365.118 1683.036,1378.692C1682.201,1380.67 1682.412,1382.935 1683.599,1384.725C1684.786,1386.515 1686.79,1387.59 1688.938,1387.59C1695.781,1387.59 1704.62,1387.59 1709.735,1387.59C1712.266,1387.59 1714.56,1386.1 1715.589,1383.786C1725.137,1362.303 1772.382,1256 1786.52,1224.19C1787.401,1222.208 1787.219,1219.916 1786.038,1218.097C1784.856,1216.279 1782.835,1215.182 1780.666,1215.182C1772.964,1215.182 1762.639,1215.182 1756.925,1215.182C1754.348,1215.182 1752.022,1216.726 1751.022,1219.101C1746.398,1230.079 1733.272,1261.243 1727.348,1275.309Z" style="fill:rgb(37,36,34);"/>
                <path d="M1798.103,1303.17C1795.166,1304.829 1794.018,1308.48 1795.477,1311.52C1805.196,1331.439 1826.788,1336.122 1842.916,1336.122C1868.996,1336.122 1891.384,1323.659 1891.384,1299.424C1891.384,1291.577 1888.845,1273.344 1860.918,1265.266L1843.147,1258.342C1836.915,1255.803 1832.068,1253.495 1832.068,1248.186C1832.068,1241.955 1838.761,1238.493 1845.224,1238.493C1849.715,1238.493 1855.875,1239.707 1859.768,1245.21C1861.546,1247.626 1864.777,1248.458 1867.501,1247.203C1871.786,1245.325 1877.69,1242.604 1882.169,1240.54C1883.906,1239.74 1885.194,1238.206 1885.682,1236.357C1886.17,1234.508 1885.807,1232.538 1884.691,1230.985C1873.516,1215.374 1857.805,1212.643 1845.916,1212.643C1820.759,1212.643 1799.525,1225.106 1799.525,1248.879C1799.525,1254.187 1800.91,1273.113 1829.068,1282.807L1849.84,1291.577C1856.302,1294.116 1858.61,1296.655 1858.61,1300.578C1858.61,1306.81 1850.763,1309.58 1843.147,1309.58C1835.034,1309.58 1825.629,1306.67 1820.612,1297.74C1818.879,1294.744 1815.057,1293.702 1812.043,1295.404C1807.696,1297.752 1802.06,1300.935 1798.103,1303.17Z" style="fill:rgb(37,36,34);"/>
                <path d="M1906.155,1274.267C1906.155,1311.426 1936.852,1336.122 1971.241,1336.122C2005.631,1336.122 2036.327,1311.195 2036.327,1274.267C2036.327,1237.57 2005.631,1212.643 1971.241,1212.643C1936.852,1212.643 1906.155,1237.339 1906.155,1274.267ZM1939.622,1274.267C1939.622,1255.803 1954.393,1242.186 1971.241,1242.186C1988.551,1242.186 2002.861,1256.034 2002.861,1274.267C2002.861,1292.731 1988.551,1306.579 1971.241,1306.579C1954.393,1306.579 1939.622,1292.962 1939.622,1274.267Z" style="fill:rgb(37,36,34);"/>
                <path d="M2099.336,1202.719C2099.336,1197.41 2101.413,1191.64 2108.107,1191.64C2114.8,1191.64 2117.108,1196.487 2117.108,1202.026C2117.108,1202.026 2117.108,1202.027 2117.108,1202.027C2117.108,1203.067 2117.521,1204.065 2118.257,1204.801C2118.992,1205.536 2119.99,1205.95 2121.03,1205.95C2125.683,1205.95 2132.691,1205.95 2137.475,1205.95C2141.002,1205.95 2143.865,1203.1 2143.882,1199.573C2143.881,1199.543 2143.881,1199.515 2143.881,1199.487C2143.881,1181.946 2133.956,1164.175 2106.029,1164.175C2085.026,1164.175 2064.947,1173.868 2064.947,1208.258L2064.947,1209.699C2064.947,1211.398 2064.272,1213.027 2063.07,1214.229C2061.869,1215.43 2060.24,1216.105 2058.541,1216.105C2057.292,1216.105 2055.983,1216.105 2054.735,1216.105C2053.036,1216.105 2051.407,1216.78 2050.205,1217.981C2049.004,1219.183 2048.329,1220.812 2048.329,1222.511C2048.329,1226.549 2048.329,1231.742 2048.329,1235.779C2048.329,1237.478 2049.004,1239.108 2050.205,1240.309C2051.407,1241.511 2053.036,1242.186 2054.735,1242.186C2055.983,1242.186 2057.292,1242.186 2058.541,1242.186C2060.24,1242.186 2061.869,1242.861 2063.07,1244.062C2064.272,1245.263 2064.947,1246.893 2064.947,1248.592C2064.947,1269.374 2064.947,1333.583 2064.947,1333.583L2099.336,1333.583L2099.336,1248.592C2099.336,1245.054 2102.204,1242.186 2105.742,1242.186C2109.905,1242.186 2115.31,1242.186 2119.472,1242.186C2123.01,1242.186 2125.878,1239.317 2125.878,1235.779C2125.878,1231.742 2125.878,1226.549 2125.878,1222.511C2125.878,1218.973 2123.01,1216.105 2119.472,1216.105C2115.31,1216.105 2109.905,1216.105 2105.742,1216.105C2102.204,1216.105 2099.336,1213.237 2099.336,1209.699C2099.336,1206.259 2099.336,1202.719 2099.336,1202.719Z" style="fill:rgb(37,36,34);"/>
                <path d="M2191.426,1192.507C2191.426,1188.969 2188.558,1186.101 2185.02,1186.101C2180.493,1186.101 2174.496,1186.101 2170.226,1186.101C2167.132,1186.101 2164.48,1188.313 2163.924,1191.357C2162.964,1196.617 2161.495,1204.665 2160.535,1209.926C2159.979,1212.97 2157.327,1215.182 2154.233,1215.182C2151.608,1215.182 2148.425,1215.182 2145.671,1215.182C2143.972,1215.182 2142.342,1215.857 2141.141,1217.058C2139.94,1218.26 2139.265,1219.889 2139.265,1221.588C2139.265,1225.874 2139.265,1231.493 2139.265,1235.779C2139.265,1237.478 2139.94,1239.108 2141.141,1240.309C2142.342,1241.511 2143.972,1242.186 2145.671,1242.186C2147.285,1242.186 2149.017,1242.186 2150.63,1242.186C2154.168,1242.186 2157.036,1245.054 2157.036,1248.592C2157.036,1262.526 2157.036,1294.347 2157.036,1294.347C2157.036,1328.505 2177.116,1336.122 2198.119,1336.122C2226.046,1336.122 2237.586,1318.35 2237.586,1300.809C2237.586,1297.915 2237.284,1294.618 2236.482,1291.45C2235.723,1288.701 2233.223,1286.798 2230.372,1286.798C2226.311,1286.73 2220.215,1286.73 2215.35,1286.73C2213.545,1286.73 2211.824,1287.492 2210.609,1288.827C2209.395,1290.163 2208.801,1291.949 2208.973,1293.745C2209.125,1294.834 2209.198,1295.914 2209.198,1296.886C2209.198,1302.425 2206.89,1307.964 2200.196,1307.964C2193.503,1307.964 2191.426,1302.886 2191.426,1297.578L2191.426,1248.592C2191.426,1246.893 2192.101,1245.263 2193.302,1244.062C2194.504,1242.861 2196.133,1242.186 2197.832,1242.186C2203.598,1242.186 2212.027,1242.186 2217.793,1242.186C2219.493,1242.186 2221.122,1241.511 2222.323,1240.309C2223.525,1239.108 2224.2,1237.478 2224.2,1235.779C2224.2,1231.493 2224.2,1225.874 2224.2,1221.588C2224.2,1219.889 2223.525,1218.26 2222.323,1217.058C2221.122,1215.857 2219.493,1215.182 2217.793,1215.182C2212.027,1215.182 2203.598,1215.182 2197.832,1215.182C2196.133,1215.182 2194.504,1214.507 2193.302,1213.306C2192.101,1212.104 2191.426,1210.475 2191.426,1208.776C2191.426,1203.942 2191.426,1197.341 2191.426,1192.507Z" style="fill:rgb(37,36,34);"/>
            </g>
        </g>
    </g>
</svg>
